<svg width="125" height="20" viewBox="0 0 125 20" fill="none" xmlns="http://www.w3.org/2000/svg">
<g clip-path="url(#clip0_21_81600)">
<path d="M25.8478 6.06409L21.9696 16.6766L18.2877 6.61231C18.1794 7.43126 17.9899 8.79167 17.7666 9.68507C17.4688 10.8695 17.0762 12.0675 16.9882 12.345L19.8918 19.6952H23.7767L29.1642 6.06409H25.8478Z" fill="#0C0A09"/>
<path d="M36.1422 5.79352C32.0542 5.79352 28.9747 8.8392 28.9747 12.8798C28.9747 16.9204 32.1151 19.9661 36.2775 19.9661C39.0119 19.9661 41.3131 18.6937 42.6193 16.4737L39.9256 15.2622C39.2014 16.4534 37.8884 17.1641 36.3926 17.1641C34.4704 17.1641 32.9476 16.0406 32.4129 14.2267L32.352 14.0101H43.2082C43.5263 11.8443 42.9713 9.80029 41.638 8.23683C40.2979 6.65985 38.3486 5.79352 36.149 5.79352H36.1422ZM32.3858 11.56L32.4603 11.3367C33.0085 9.67169 34.4501 8.59555 36.1422 8.59555C37.8342 8.59555 39.3232 9.64462 39.8512 11.3434L39.9188 11.56H32.3926H32.3858Z" fill="#0C0A09"/>
<path d="M49.1169 7.81031L48.8123 8.22994V6.07089H45.4959V19.702H48.8123V12.0472C48.8123 10.9508 49.2658 10.0235 50.0915 9.44145C51.0864 8.73756 52.5145 8.60219 54.0374 9.08273V5.97613C52.2167 5.45498 50.3419 6.15211 49.1169 7.81708V7.81031Z" fill="#0C0A09"/>
<path d="M61.516 11.6274C59.851 11.3432 58.4094 11.0928 58.4094 9.87449C58.4094 8.99462 59.3434 8.35164 60.6361 8.35164C61.9288 8.35164 62.8561 9.00816 63.0997 10.2129L66.3959 9.52254C65.9221 7.21459 63.736 5.7865 60.6361 5.7865C57.5363 5.7865 55.0659 7.61391 55.0659 10.0302C55.0659 13.1909 57.7732 13.6444 60.1556 14.0369C61.8273 14.3144 63.269 14.5513 63.269 15.7628C63.269 16.7239 62.186 17.3939 60.6361 17.3939C59.0862 17.3939 58.2334 16.751 58.0033 15.5327L54.6869 16.223C55.1607 18.531 57.4212 19.9523 60.6361 19.9523C63.851 19.9523 66.6124 18.0911 66.6124 15.7087C66.6124 12.4938 63.9052 12.0268 61.516 11.6139V11.6274Z" fill="#0C0A09"/>
<path d="M76.3723 5.79357C74.6735 5.79357 73.1303 6.5313 72.1489 7.81049L71.8444 8.20305V0H68.528V19.6954H71.8444V12.0406C71.8444 10.1523 73.2454 8.78511 75.1811 8.78511C77.1168 8.78511 78.5178 10.1252 78.5178 12.0406V19.6954H81.8342V11.3909C81.8342 8.09475 79.5872 5.79357 76.3723 5.79357Z" fill="#0C0A09"/>
<path d="M91.215 5.79352C87.0525 5.79352 83.9121 8.8392 83.9121 12.8798C83.9121 16.9204 87.0525 19.9661 91.215 19.9661C95.3774 19.9661 98.5179 16.9204 98.5179 12.8798C98.5179 8.8392 95.3774 5.79352 91.215 5.79352ZM91.215 16.9746C89.0221 16.9746 87.3639 15.2148 87.3639 12.8798C87.3639 10.5448 89.0221 8.81213 91.215 8.81213C93.4079 8.81213 95.0661 10.5583 95.0661 12.8798C95.0661 15.2013 93.4079 16.9746 91.215 16.9746Z" fill="#0C0A09"/>
<path d="M107.411 5.79352C103.249 5.79352 100.108 8.8392 100.108 12.8798C100.108 16.9204 103.249 19.9661 107.411 19.9661C111.574 19.9661 114.714 16.9204 114.714 12.8798C114.714 8.8392 111.574 5.79352 107.411 5.79352ZM107.411 16.9746C105.218 16.9746 103.56 15.2148 103.56 12.8798C103.56 10.5448 105.218 8.81213 107.411 8.81213C109.604 8.81213 111.262 10.5583 111.262 12.8798C111.262 15.2013 109.604 16.9746 107.411 16.9746Z" fill="#0C0A09"/>
<path d="M124.968 8.94744V6.06419H121.34V0.872986L118.024 1.90175V6.06419H115.208V8.94744H118.024V14.45C118.024 18.0303 119.757 19.6953 123.486 19.6953H124.968V16.8121H123.486C122.044 16.8121 121.34 16.1082 121.34 14.6666V8.94744H124.968Z" fill="#0C0A09"/>
<path d="M9.59076 5.52259C6.26081 5.52259 4.70413 8.43967 4.70413 10.4092C4.70413 12.3788 6.25405 15.2959 9.59076 15.2959C9.94948 15.2959 10.3285 15.2485 10.7007 15.1605L11.1542 15.0522L10.8767 15.4244C10.0104 16.5953 8.64998 17.2925 7.23543 17.2925C4.73797 17.2925 2.70751 15.262 2.70075 12.7578C2.70075 11.2959 3.48586 10.1994 4.09499 9.38722L1.92917 7.76286C1.29973 8.59534 -0.00653076 10.328 -0.00653076 12.7578C-0.00653076 16.751 3.2422 19.993 7.23543 19.9997C11.3911 19.9997 14.5654 16.6224 14.6195 12.1486V12.1013L14.6466 12.0607C15.6821 10.328 16.2236 8.04035 16.2439 5.27893H13.5366C13.5366 5.90837 13.496 6.51074 13.4283 7.0725L13.3809 7.46506L13.1305 7.16049C12.5079 6.40922 11.3843 5.51582 9.59753 5.51582L9.59076 5.52259ZM11.8378 11.3635C10.8767 12.4938 9.88179 12.5818 9.59753 12.5818C8.93425 12.5818 8.39279 12.3382 7.9867 11.8508C7.56707 11.3568 7.42494 10.7612 7.42494 10.4024C7.42494 10.0437 7.57384 9.44813 7.9867 8.95406C8.39279 8.46675 8.94102 8.22309 9.59753 8.22309C10.254 8.22309 10.7075 8.44644 11.0933 8.93375C11.4249 9.35338 11.6821 9.96929 11.7972 10.6393C11.831 10.8424 11.8581 11.0387 11.8784 11.2349V11.3094L11.8378 11.3635Z" fill="#0C0A09"/>
</g>
<defs>
<clipPath id="clip0_21_81600">
<rect width="124.968" height="20" fill="white"/>
</clipPath>
</defs>
</svg>
